<svg width="127" height="35" viewBox="0 0 127 35" fill="none" xmlns="http://www.w3.org/2000/svg">
<path d="M29.032 0.735992L19.768 34H9.97598L0.375977 0.735992H8.67998L15.016 27.856L20.968 0.735992H29.032Z" fill="#141414"/>
<path d="M29.032 0.735992L19.768 34H9.97598L0.375977 0.735992H8.67998L15.016 27.856L20.968 0.735992H29.032Z" fill="black" fill-opacity="0.2"/>
<path d="M49.6851 26.608C49.6851 27.568 49.8131 28.272 50.0691 28.72C50.3571 29.168 50.8051 29.504 51.4131 29.728L49.8291 34.672C48.2611 34.544 46.9811 34.208 45.9891 33.664C44.9971 33.088 44.2291 32.192 43.6851 30.976C42.0211 33.536 39.4611 34.816 36.0051 34.816C33.4771 34.816 31.4611 34.08 29.9571 32.608C28.4531 31.136 27.7011 29.216 27.7011 26.848C27.7011 24.064 28.7251 21.936 30.7731 20.464C32.8211 18.992 35.7811 18.256 39.6531 18.256H42.2451V17.152C42.2451 15.648 41.9251 14.624 41.2851 14.08C40.6451 13.504 39.5251 13.216 37.9251 13.216C37.0931 13.216 36.0851 13.344 34.9011 13.6C33.7171 13.824 32.5011 14.144 31.2531 14.56L29.5251 9.56799C31.1251 8.95999 32.7571 8.49599 34.4211 8.17599C36.1171 7.85599 37.6851 7.69599 39.1251 7.69599C42.7731 7.69599 45.4451 8.44799 47.1411 9.95199C48.8371 11.456 49.6851 13.712 49.6851 16.72V26.608ZM38.2131 29.392C39.9411 29.392 41.2851 28.576 42.2451 26.944V22.432H40.3731C38.6451 22.432 37.3491 22.736 36.4851 23.344C35.6531 23.952 35.2371 24.896 35.2371 26.176C35.2371 27.2 35.4931 28 36.0051 28.576C36.5491 29.12 37.2851 29.392 38.2131 29.392Z" fill="#141414"/>
<path d="M49.6851 26.608C49.6851 27.568 49.8131 28.272 50.0691 28.72C50.3571 29.168 50.8051 29.504 51.4131 29.728L49.8291 34.672C48.2611 34.544 46.9811 34.208 45.9891 33.664C44.9971 33.088 44.2291 32.192 43.6851 30.976C42.0211 33.536 39.4611 34.816 36.0051 34.816C33.4771 34.816 31.4611 34.08 29.9571 32.608C28.4531 31.136 27.7011 29.216 27.7011 26.848C27.7011 24.064 28.7251 21.936 30.7731 20.464C32.8211 18.992 35.7811 18.256 39.6531 18.256H42.2451V17.152C42.2451 15.648 41.9251 14.624 41.2851 14.08C40.6451 13.504 39.5251 13.216 37.9251 13.216C37.0931 13.216 36.0851 13.344 34.9011 13.6C33.7171 13.824 32.5011 14.144 31.2531 14.56L29.5251 9.56799C31.1251 8.95999 32.7571 8.49599 34.4211 8.17599C36.1171 7.85599 37.6851 7.69599 39.1251 7.69599C42.7731 7.69599 45.4451 8.44799 47.1411 9.95199C48.8371 11.456 49.6851 13.712 49.6851 16.72V26.608ZM38.2131 29.392C39.9411 29.392 41.2851 28.576 42.2451 26.944V22.432H40.3731C38.6451 22.432 37.3491 22.736 36.4851 23.344C35.6531 23.952 35.2371 24.896 35.2371 26.176C35.2371 27.2 35.4931 28 36.0051 28.576C36.5491 29.12 37.2851 29.392 38.2131 29.392Z" fill="black" fill-opacity="0.2"/>
<path d="M70.654 7.69599C72.862 7.69599 74.59 8.36799 75.838 9.71199C77.086 11.056 77.71 12.944 77.71 15.376V34H70.126V16.672C70.126 15.392 69.918 14.512 69.502 14.032C69.118 13.52 68.526 13.264 67.726 13.264C66.19 13.264 64.718 14.368 63.31 16.576V34H55.726V8.51199H62.35L62.878 11.536C63.966 10.256 65.134 9.29599 66.382 8.65599C67.662 8.01599 69.086 7.69599 70.654 7.69599Z" fill="#141414"/>
<path d="M70.654 7.69599C72.862 7.69599 74.59 8.36799 75.838 9.71199C77.086 11.056 77.71 12.944 77.71 15.376V34H70.126V16.672C70.126 15.392 69.918 14.512 69.502 14.032C69.118 13.52 68.526 13.264 67.726 13.264C66.19 13.264 64.718 14.368 63.31 16.576V34H55.726V8.51199H62.35L62.878 11.536C63.966 10.256 65.134 9.29599 66.382 8.65599C67.662 8.01599 69.086 7.69599 70.654 7.69599Z" fill="black" fill-opacity="0.2"/>
<path d="M91.9251 0.879991C94.1971 0.879991 96.1331 1.24799 97.7331 1.98399C99.3651 2.71999 100.597 3.71199 101.429 4.95999C102.293 6.20799 102.725 7.59999 102.725 9.13599C102.725 11.088 102.165 12.72 101.045 14.032C99.9571 15.344 98.4051 16.288 96.3891 16.864C98.5651 17.088 100.341 17.872 101.717 19.216C103.093 20.528 103.781 22.4 103.781 24.832C103.781 26.656 103.301 28.336 102.341 29.872C101.381 31.376 99.9571 32.576 98.0691 33.472C96.2131 34.368 93.9891 34.816 91.3971 34.816C86.6611 34.816 82.9491 33.184 80.2611 29.92L84.3411 25.936C85.4291 27.024 86.4851 27.824 87.5091 28.336C88.5651 28.816 89.7171 29.056 90.9651 29.056C92.4691 29.056 93.6851 28.64 94.6131 27.808C95.5411 26.976 96.0051 25.824 96.0051 24.352C96.0051 22.688 95.5571 21.504 94.6611 20.8C93.7971 20.064 92.4851 19.696 90.7251 19.696H88.0371L88.8531 14.464H90.7251C92.1651 14.464 93.3011 14.096 94.1331 13.36C94.9651 12.624 95.3811 11.584 95.3811 10.24C95.3811 9.05599 94.9971 8.14399 94.2291 7.50399C93.4611 6.83199 92.4051 6.49599 91.0611 6.49599C88.7891 6.49599 86.6771 7.43999 84.7251 9.32799L80.9811 5.24799C84.0531 2.33599 87.7011 0.879991 91.9251 0.879991Z" fill="#141414"/>
<path d="M91.9251 0.879991C94.1971 0.879991 96.1331 1.24799 97.7331 1.98399C99.3651 2.71999 100.597 3.71199 101.429 4.95999C102.293 6.20799 102.725 7.59999 102.725 9.13599C102.725 11.088 102.165 12.72 101.045 14.032C99.9571 15.344 98.4051 16.288 96.3891 16.864C98.5651 17.088 100.341 17.872 101.717 19.216C103.093 20.528 103.781 22.4 103.781 24.832C103.781 26.656 103.301 28.336 102.341 29.872C101.381 31.376 99.9571 32.576 98.0691 33.472C96.2131 34.368 93.9891 34.816 91.3971 34.816C86.6611 34.816 82.9491 33.184 80.2611 29.92L84.3411 25.936C85.4291 27.024 86.4851 27.824 87.5091 28.336C88.5651 28.816 89.7171 29.056 90.9651 29.056C92.4691 29.056 93.6851 28.64 94.6131 27.808C95.5411 26.976 96.0051 25.824 96.0051 24.352C96.0051 22.688 95.5571 21.504 94.6611 20.8C93.7971 20.064 92.4851 19.696 90.7251 19.696H88.0371L88.8531 14.464H90.7251C92.1651 14.464 93.3011 14.096 94.1331 13.36C94.9651 12.624 95.3811 11.584 95.3811 10.24C95.3811 9.05599 94.9971 8.14399 94.2291 7.50399C93.4611 6.83199 92.4051 6.49599 91.0611 6.49599C88.7891 6.49599 86.6771 7.43999 84.7251 9.32799L80.9811 5.24799C84.0531 2.33599 87.7011 0.879991 91.9251 0.879991Z" fill="black" fill-opacity="0.2"/>
<path d="M126.319 8.51199V13.84L114.799 28.24H126.559L125.887 34H106.015V28.624L117.583 14.224H107.023V8.51199H126.319Z" fill="#141414"/>
<path d="M126.319 8.51199V13.84L114.799 28.24H126.559L125.887 34H106.015V28.624L117.583 14.224H107.023V8.51199H126.319Z" fill="black" fill-opacity="0.2"/>
</svg>
